
<svg xmlns="http://www.w3.org/2000/svg" xmlns:xlink="http://www.w3.org/1999/xlink" viewBox="0 0 409.59 39.59"><defs><style>.cls-1{fill:url(#名称未設定グラデーション_4);}</style><linearGradient id="名称未設定グラデーション_4" y1="19.8" x2="409.59" y2="19.8" gradientUnits="userSpaceOnUse"><stop offset="0" stop-color="#d8ff6c"/><stop offset="1" stop-color="#9ad4b6"/></linearGradient></defs><g id="レイヤー_2" data-name="レイヤー 2"><g id="レイヤー_1-2" data-name="レイヤー 1"><path d="M3,34.43l1-.12,3.23-.43.89-.12,1.34-5.23c-2.07.85-4.19,1.6-6.33,2.25l-.9.27L2,30.17a9.22,9.22,0,0,0-1.06-2L0,27l1.45-.37A62.63,62.63,0,0,0,15.68,20.9H2.94l1.11-4.36H20.77l.52-2H9.09l1.1-4.28h12.2l.47-1.84H8.34L9.45,4H24l1-4,5.62.39-.51,1.28a1.76,1.76,0,0,1-1,1L28.76,4h15L42.64,8.38h-15l-.47,1.84H39.85l-1.1,4.28H26.08l-.53,2H42.47L41.36,20.9H37.07l2.42,2.19-.63.74a1.8,1.8,0,0,1-1.4.58h-.05a98.42,98.42,0,0,1-8.68,4.78,15.12,15.12,0,0,0,8.65,5.87l2,.57-1.69,1.2A13,13,0,0,0,35.52,39l-.43.55-.67-.22a18.09,18.09,0,0,1-9.65-7l-.68,3.34-.67.11C17.14,36.88,10.36,38,6,38.62a2.15,2.15,0,0,1-1,.64l-1.09.33Zm10.07-1.34,11.13-1.63a23,23,0,0,1-2.85-9.18,55.55,55.55,0,0,1-5.56,3.31l-.13.3a1.73,1.73,0,0,1-1,.94ZM25.87,20.9a20.13,20.13,0,0,0,1.05,4.72c2.81-1.5,5.82-3.29,7.93-4.72Z"/><path d="M24.78,19.9A21.14,21.14,0,0,0,26.4,27,91.58,91.58,0,0,0,36,21.3l2.08,1.88a1,1,0,0,1-.93.2,97.23,97.23,0,0,1-9.9,5.4A16,16,0,0,0,37.1,36a13.87,13.87,0,0,0-2.36,2.36c-8.15-2.72-12-8.88-12.54-17.92A54.85,54.85,0,0,1,14,25.38l.73.12c-.1.24-.35.44-.89.52L11.74,34.3l12-1.76-.46,2.28c-6.57,1.12-13.53,2.24-17.9,2.88a1,1,0,0,1-.67.6l-.51-3c1.36-.16,3-.4,4.8-.64l2-7.84a71,71,0,0,1-8.09,3,10.7,10.7,0,0,0-1.2-2.2A62.81,62.81,0,0,0,19.26,19.9h-15l.6-2.36H21.55l1-4H10.38L11,11.22H23.16l1-3.84H9.63L10.23,5H24.75l1-4,3.42.24c-.11.28-.36.48-.9.56L27.47,5h15l-.61,2.36h-15l-1,3.84H38.56L38,13.5H25.3l-1,4H41.18l-.6,2.36Z"/><path d="M61.51,38.69a8.5,8.5,0,0,0-1.24-1.86l-1-1.07,1.38-.55c1.21-.48,2.44-1.05,3.65-1.67H54.65l-1.48,5.8H48.54L50,33.54H39.51l1.09-4.28H51.12l.23-.88h-7.8L46.89,15.3H67.23l-1.5,5.89.07,0a52,52,0,0,0,13-8.85l.48-.46,4.46,1.88-.66,1a1.92,1.92,0,0,1-1.25.77,67.33,67.33,0,0,1-13.72,9.37l-.91.46-.44-.92a7,7,0,0,0-1.26-1.63l-.18-.17-1.47,5.77H56l-.23.88H65.9l-1,4a43.68,43.68,0,0,0,11.89-9.1l.47-.54,4.6,1.89-.66,1a1.78,1.78,0,0,1-1.21.74,54.21,54.21,0,0,1-17.17,12l-.89.38ZM60.2,24.58l.23-.92H49.3l-.24.92Zm1.18-4.64.22-.84H50.46l-.21.84Zm-17.15-5.2,1.09-4.24h6.4a15.27,15.27,0,0,0-.22-2.88h-4l1.07-4.16h9.2L58.59.05,64.1.38l-.51,1.29a1.81,1.81,0,0,1-1.05,1l-.2.79h9.08L70.36,7.62H67.62l-.22.28a1.77,1.77,0,0,1-1.12.67c-.49.71-1,1.35-1.37,1.93h2.74l-.37-.32,1.37-.66A48.08,48.08,0,0,0,80.48,1.16l.46-.48,4.68,1.85-.79,1.05a1.9,1.9,0,0,1-1.28.74A59.74,59.74,0,0,1,71,13.18l-.92.48-.14-.3-.35,1.38ZM59.87,10.5h0c.59-.76,1.35-1.84,2-2.87h-6a15.44,15.44,0,0,1,.22,2.88Z"/><path d="M64,32.54H53.87l-1.48,5.8H49.83l1.48-5.8H40.8l.58-2.28H51.9l.73-2.88h-7.8L47.67,16.3H65.94L63.11,27.38H55.19l-.73,2.88H64.61Zm5.38-21-.57,2.24H45.52l.57-2.24H61.73l-1.06-.4a40.12,40.12,0,0,0,3-4.48H48.74l.55-2.16h9.2l.86-3.36,3.31.2c-.11.28-.4.48-.94.56l-.67,2.6h9.08l-.55,2.16h-5l2.06.68a1,1,0,0,1-.88.32c-.76,1.12-1.89,2.72-2.87,3.88ZM48.52,22.66l-.75,2.92H61l.75-2.92Zm1.17-4.56L49,20.94h13.2l.72-2.84Zm3-6.6a15.08,15.08,0,0,0-.23-4.4l2.29-.36A13.32,13.32,0,0,1,55.14,11ZM80.36,25.94a1,1,0,0,1-.85.32,52.82,52.82,0,0,1-17.1,12A9.47,9.47,0,0,0,61,36.14,46.1,46.1,0,0,0,77.53,24.78Zm1.92-11.76a1,1,0,0,1-.85.36A65.63,65.63,0,0,1,67.7,24a7.68,7.68,0,0,0-1.47-1.92,53.73,53.73,0,0,0,13.31-9ZM84,3a1,1,0,0,1-.9.36,58.78,58.78,0,0,1-12.56,9,6.9,6.9,0,0,0-1.48-1.88,48.38,48.38,0,0,0,12.1-8.56Z"/><path d="M112,39.34a5.13,5.13,0,0,1-4.09-1.93c-3.74-4.46-2.81-15.81-1.26-25H85.27l1.18-4.64h21c.47-2.22,1-4.49,1.53-6.76l.19-.81,5.76.31-.3,1.18a1.72,1.72,0,0,1-.27.58L117.58.05l.58.47a24.57,24.57,0,0,1,5,5.22l.47.77-1.67,1.27h2.67l-1.18,4.64h-12c-1.82,10.65-1.69,19,.37,21.49a1.36,1.36,0,0,0,1.11.59c.33-.12,1.2-1.21,3-7l.54-1.81,1.19,1.47a4.91,4.91,0,0,0,1.61,1.22l.87.35-.29.89C117.6,36.19,115.87,39.34,112,39.34Zm6.64-31.56a23.89,23.89,0,0,0-3.88-4.19l-.95-.79-.29.13c-.44,1.77-.82,3.37-1.14,4.85ZM79.75,33.72l.92-.17c1.82-.32,4.73-.86,8.49-1.63L91.88,21.3H84.4l1.16-4.56h20l-1.16,4.56H96.62l-2.46,9.61c2.59-.54,5.25-1.1,7.85-1.67l1.45-.31-.76,4.47-.65.15c-6.53,1.55-14.14,3.24-19.53,4.36a2.21,2.21,0,0,1-1.1.72l-1.13.3Z"/><path d="M95.84,20.3l-3,11.92c3.09-.64,6.3-1.32,9.44-2l-.41,2.36C94.54,34.3,86.74,36,81.89,37a1.09,1.09,0,0,1-.72.64l-.33-3.12c2.48-.44,5.63-1,9.13-1.76L93.16,20.3H85.68l.66-2.56h17.92l-.66,2.56Zm26.79-8.88h-12c-2.31,13-2,24.08,2.32,24.08,1.16,0,2.28-2.32,3.91-7.76a5.61,5.61,0,0,0,2,1.52c-2.32,7-3.92,9.08-6.88,9.08-6.52,0-6.74-12.44-4.16-26.92H86.55l.68-2.64h21c.51-2.48,1.07-5,1.68-7.52l3.71.2c-.09.36-.39.56-1,.64-.57,2.24-1.1,4.48-1.54,6.68H123.3ZM117.54,1.3a23.53,23.53,0,0,1,4.73,5L119.94,8a23.28,23.28,0,0,0-4.59-5.2Z"/><path d="M134.1,39.18,137,27.94H127.6l-.61,2.4h-4.74l6.36-24.88h14.11L144.12,0l5.74.39-.51,1.28a1.81,1.81,0,0,1-1,1l-.71,2.79h14.84l-6.3,24.64H151.3l.55-2.16h-10L139,39.18ZM153,23.38l1.14-4.44h-10L143,23.38Zm-14.88,0,1.14-4.44H129.9l-1.13,4.44Zm17.17-9,1.12-4.36h-10l-1.11,4.36Zm-14.88,0,1.12-4.36h-9.38l-1.11,4.36Z"/><path d="M146.3,6.46h14.84L155.35,29.1h-2.76l.55-2.16H141.06l-2.87,11.24h-2.8l2.88-11.24H126.83l-.62,2.4h-2.68l5.85-22.88H143.5l1.38-5.4,3.54.24c-.11.28-.4.48-.94.56ZM127.48,24.38h11.44l1.65-6.44H129.13ZM142.84,9.06H131.4l-1.63,6.36h11.44Zm-1.12,15.32H153.8l1.64-6.44H143.37Zm16-15.32H145.64L144,15.42h12.08Z"/><path d="M157,34.69l.68-.38c2-1.16,4.69-2.87,7.18-4.62l2.31-9h-5.88l1.17-4.56H173l-3.28,12.84.07,0c6.21-3.36,11.57-9.71,15.5-18.38l.34-.74.92.21c.1-1,.22-2.06.38-3.21h-7.65l1.16-4.56h11.68l-.2,1.16c-2.34,13.81-.69,21.88,5.21,25.42l1.45.87-1.46.85a16.61,16.61,0,0,0-2.45,1.87l-.58.54-.66-.44c-4.24-2.83-6.56-7.57-7.06-14.41-3.91,6.49-8.67,11.35-14.17,14.45l-.24.14c2.53,1.27,6.43,1.27,11.23,1.27,4.48,0,9.52-.13,12.53-.32l2.18-.14-1.31,1.74a12.68,12.68,0,0,0-1.44,2.45l-.22.64-.67,0c-2.84.12-7.24.2-11.22.2-7.79,0-13.56,0-16.76-4.52-2.06,1.48-4.17,2.95-5.93,4.11a1.67,1.67,0,0,1-1,.94l-1,.4Zm12.68-4.1a5,5,0,0,0,1,1.18A5.58,5.58,0,0,0,169.67,30.59Zm1.94-20a18.66,18.66,0,0,0-5.07-6.12l-1.06-.85L169.62.87l.57.43A21.12,21.12,0,0,1,176,8l.35.76-4.3,3Z"/><path d="M171.7,17.1l-3.34,13.08c1.9,4.76,7.62,4.76,14.82,4.76,4.32,0,9.43-.12,12.6-.32a13.07,13.07,0,0,0-1.58,2.72c-2.79.12-7.21.2-11.17.2-8.24,0-13.72,0-16.49-5-2.41,1.76-5,3.56-7,4.92a.73.73,0,0,1-.53.64l-.8-3c2.25-1.28,5.08-3.12,7.57-4.88l2.72-10.64h-5.88l.65-2.56Zm-2.12-15a20.34,20.34,0,0,1,5.54,6.32l-2.58,1.8a19.71,19.71,0,0,0-5.37-6.52Zm11.63,1.12h9.72c-2.14,12.6-1.33,22.24,5.68,26.44a18.16,18.16,0,0,0-2.64,2c-5-3.36-6.83-9.4-6.71-17.24C183.33,22,178.15,28,171.7,31.66a6.56,6.56,0,0,0-1.44-1.88c6.73-3.64,12.09-10.36,15.93-18.84l1.25.28c.13-1.76.35-3.56.63-5.44h-7.52Z"/><path d="M217.62,37.7A8.28,8.28,0,0,0,216,36.23l-1.26-.92,1.36-.76a28.56,28.56,0,0,0,10.81-10.9A31.35,31.35,0,0,0,219,21.28c-5.13,9.57-8.55,12.66-13.86,12.66a5.29,5.29,0,0,1-4.42-1.8c-1.39-1.79-1-4.36-.66-5.73,1.79-7,9.75-9.67,16.28-9.86,1.39-2.74,2.81-5.87,4.14-9.17-2.63.19-7,.48-9.57.65a3,3,0,0,1-1.21.57l-1.4.29.79-5.48.84,0c3.56-.13,11.05-.61,13.43-.84.11,0,.14,0,.36-.16l.21-.14.56-.34L228,4.4l-.74.84a2.82,2.82,0,0,1-1.16.77c-1.42,3.53-3.16,7.4-4.89,10.86a36.93,36.93,0,0,1,8,2.4c1.13-2.2,2.35-4.93,3.48-7.82l.31-.8L238.84,12l-.6,1.15a2.37,2.37,0,0,1-1.53,1.17c-1,2.24-2.06,4.61-3.18,6.8,1.8.89,3.5,1.8,5.06,2.7l1,.56-3.15,4.3-.78-.44c-1.6-.92-3.12-1.79-4.63-2.56-3.51,5.73-7.36,9.66-12.07,12.32l-.77.43Zm-3.68-16.55c-5,.47-8.56,2.64-9.35,5.76a2.69,2.69,0,0,0,.09,2.16c.07.09.27.35.94.35C207.87,29.42,209.71,28.81,213.94,21.15Z"/><path d="M237.35,12.66a1.47,1.47,0,0,1-1.34.72c-1.15,2.76-2.53,5.68-3.85,8.16,1.93.92,3.94,2,5.92,3.12l-2,2.68c-1.88-1.08-3.7-2.12-5.51-3-3.4,5.76-7.23,10-12.18,12.76a10,10,0,0,0-1.85-1.68c4.9-2.76,8.46-6.52,11.76-12.24a32.64,32.64,0,0,0-9.92-3c-5.33,10.08-8.49,12.72-13.29,12.72s-4.74-3.84-4.11-6.28c1.58-6.2,8.76-9.08,15.93-9.12a118.6,118.6,0,0,0,5-11.28c-1.92.16-8.43.6-11.52.8a1.76,1.76,0,0,1-1,.56L210,4.38c3.47-.12,11-.6,13.5-.84a2,2,0,0,0,1-.44l2.1,1.48a2.32,2.32,0,0,1-1.16.64c-1.78,4.44-3.91,9-5.67,12.48a33.88,33.88,0,0,1,10,2.84,83.51,83.51,0,0,0,3.95-8.72Zm-21.69,7.4c-5.78.08-11,2.36-12,6.6-.57,2.24.12,3.76,2,3.76C208.54,30.42,210.71,29.42,215.66,20.06Z"/><path d="M259,37.7c-3,0-5.29-.87-6.52-2.46a5.11,5.11,0,0,1-.78-4.55c1.17-4.56,6.14-6.63,10.27-6.63a14.26,14.26,0,0,1,2.9.29c.25-1.22,1.41-7,1.69-8.35-1,0-2.09.06-2.87.06h-7.35l1.11-4.61h.8c1.26,0,2.52,0,3.79,0,2.11,0,3.87-.05,5.49-.14.73-3.49,1.3-6.1,1.88-8.64l.19-.8,6.2.19-.46,1.29A2.26,2.26,0,0,1,274,4.7c-.42,1.77-.84,3.59-1.29,5.57l-.15.68a37.91,37.91,0,0,0,6.66-1.41l1.48-.46-.63,5-.63.19a44.45,44.45,0,0,1-7.91,1.41c-.83,3.8-1.66,7.69-2.19,10.19a21.32,21.32,0,0,1,6.49,5l.55.65-3.59,4.16-.74-1A15.64,15.64,0,0,0,268.13,31C267.28,33.68,265.26,37.7,259,37.7Zm2.4-9.24c-1.7,0-4.72.56-5.26,2.65a1.16,1.16,0,0,0,.16,1.12c.48.62,1.73,1,3.33,1,2.41,0,3.53-1,4.26-3.89l.11-.47A9.64,9.64,0,0,0,261.41,28.46Zm-20.33,7.73c-.68-3.9,1.28-12.09,1.9-14.5a121,121,0,0,1,7-18.85l.33-.72L256,3.29l-.52,1.14A2.27,2.27,0,0,1,254,5.63a91.31,91.31,0,0,0-6.43,16.6c-.22.86-.43,1.71-.63,2.53,1-1.55,2-3,2.67-3.92l.76-1.08,2.69,3.31-.46.62c-3.07,4.15-6.33,9-6.68,10.34a4.12,4.12,0,0,0-.07,1.56l.11,1-4.73.54Z"/><path d="M242.06,36c-.5-2.88.54-8.84,1.88-14.08a121.9,121.9,0,0,1,6.94-18.68l3.69.76a1.43,1.43,0,0,1-1.23.72A92.64,92.64,0,0,0,246.61,22,51.27,51.27,0,0,0,245,29.54c1.49-2.4,4.08-6.24,5.4-8.12l1.37,1.68c-2,2.72-6.37,8.8-6.85,10.68a5,5,0,0,0-.09,1.92Zm16.19-23.56c3.35,0,6.7.08,10.12-.16.72-3.44,1.35-6.4,2-9.36l4,.12a1.52,1.52,0,0,1-1.26.84c-.61,2.56-1.2,5.16-1.89,8.2a40.94,40.94,0,0,0,8.24-1.6l-.35,2.8a44,44,0,0,1-8.45,1.44c-1,4.44-2,9.12-2.5,11.68a20.75,20.75,0,0,1,6.86,5.08l-2.22,2.56a16.66,16.66,0,0,0-5.31-4.56c-.91,3.4-2.52,7.2-8.52,7.2-4.68,0-7.23-2.24-6.33-5.76,1-4.08,5.63-5.88,9.3-5.88a12.48,12.48,0,0,1,3.67.52c.53-2.52,1.36-6.72,2.16-10.64-1.26.08-2.95.12-4.11.12h-6.08Zm6.94,15.72a11.85,11.85,0,0,0-3.78-.72c-2.44,0-5.58.88-6.23,3.4-.57,2.24,1.54,3.36,4.46,3.36s4.41-1.44,5.23-4.64Z"/><polygon points="304.7 35.9 305.26 33.7 280.07 33.7 281.26 29.02 306.46 29.02 310.94 11.5 286.14 11.5 287.34 6.82 317.12 6.82 309.68 35.9 304.7 35.9"/><path d="M315.83,7.82,308.91,34.9H306l.56-2.2h-25.2L282,30h25.19l5-19.52h-24.8l.68-2.68Z"/><path d="M324,37.82a12.64,12.64,0,0,0-1.61-1.76l-1.05-1,1.31-.62c6.85-3.28,10.89-7.4,13.67-14H320.22l1.19-4.64H338c.62-2,1.16-4,1.77-6.26-4.09.81-8.87,1.55-12.85,2l-1.1.12V10.5a10.92,10.92,0,0,0-.22-2.11l-.24-1.08,1.1-.13c13.5-1.56,22.67-4.17,26-5.45l.76-.3,2.59,4-1.07.47a2.26,2.26,0,0,1-.95.21,2.18,2.18,0,0,1-.35,0c-2,.66-4.74,1.44-7.5,2.12a2,2,0,0,1-1.12,1.11c-.58,2.15-1.18,4.34-1.81,6.43h13.65l-1.19,4.64h-14c-3.31,8.58-8,13.75-16.05,17.74l-.78.38Z"/><path d="M354.62,19.42H340.67c-2.85,7.68-6.92,13.44-15.8,17.84a13.91,13.91,0,0,0-1.75-1.92c8.2-3.92,12.07-8.88,14.71-15.92H321.51l.68-2.64H338.7c.88-2.64,1.57-5.36,2.43-8.56-4.31.92-9.82,1.8-14.34,2.28a11.44,11.44,0,0,0-.25-2.32C341,6.5,350,3.74,352.75,2.66L354.27,5a1.3,1.3,0,0,1-.55.12,1.53,1.53,0,0,1-.43,0c-2.46.84-6.28,1.88-9.64,2.64l1.29.12a1.15,1.15,0,0,1-1,.68c-.81,3-1.54,5.72-2.35,8.24H355.3Z"/><path d="M362.79,37.14a7.61,7.61,0,0,0-.94-2l-.82-1.2,1.41-.33c10.86-2.56,18.47-7.68,23.18-15.63H359.57l1.2-4.72H389l.73-.38,3.51,2-.68.9a2.06,2.06,0,0,1-.71.58c-6.27,11.75-14.36,18-27.82,21.47l-1,.25Zm3.29-29.48L367.27,3h24.86l-1.19,4.64Z"/><path d="M391.74,15.22a1.29,1.29,0,0,1-.62.4c-6.37,12.08-14.55,18-27.36,21.28a8.5,8.5,0,0,0-1.09-2.32c11.58-2.72,19.77-8.32,24.66-17.6H360.85l.7-2.72h27.68l.46-.24Zm-1.57-8.56h-22.8L368.05,4h22.79Z"/><path d="M398.4,36.34a2.81,2.81,0,0,1-2.29-1.07,3.19,3.19,0,0,1-.5-2.78,4.5,4.5,0,0,1,4.12-3.35A2.81,2.81,0,0,1,402,30.22a3.19,3.19,0,0,1,.49,2.77A4.5,4.5,0,0,1,398.4,36.34Zm-.23-9,5.47-23.92h5.95L402.82,27.3Z"/><path d="M396.58,32.74a3.52,3.52,0,0,1,3.15-2.6,1.91,1.91,0,0,1,1.81,2.6,3.51,3.51,0,0,1-3.14,2.6A1.92,1.92,0,0,1,396.58,32.74Zm2.85-6.44,5-21.92h3.84l-6.2,21.92Z"/><path class="cls-1" d="M3,34.43l1-.12,3.23-.43.89-.12,1.34-5.23c-2.07.85-4.19,1.6-6.33,2.25l-.9.27L2,30.17a9.22,9.22,0,0,0-1.06-2L0,27l1.45-.37A62.63,62.63,0,0,0,15.68,20.9H2.94l1.11-4.36H20.77l.52-2H9.09l1.1-4.28h12.2l.47-1.84H8.34L9.45,4H24l1-4,5.62.39-.51,1.28a1.76,1.76,0,0,1-1,1L28.76,4h15L42.64,8.38h-15l-.47,1.84H39.85l-1.1,4.28H26.08l-.53,2H42.47L41.36,20.9H37.07l2.42,2.19-.63.74a1.8,1.8,0,0,1-1.4.58h-.05a98.42,98.42,0,0,1-8.68,4.78,15.12,15.12,0,0,0,8.65,5.87l2,.57-1.69,1.2A13,13,0,0,0,35.52,39l-.43.55-.67-.22a18.09,18.09,0,0,1-9.65-7l-.68,3.34-.67.11C17.14,36.88,10.36,38,6,38.62a2.15,2.15,0,0,1-1,.64l-1.09.33Zm10.07-1.34,11.13-1.63a23,23,0,0,1-2.85-9.18,55.55,55.55,0,0,1-5.56,3.31l-.13.3a1.73,1.73,0,0,1-1,.94ZM25.87,20.9a20.13,20.13,0,0,0,1.05,4.72c2.81-1.5,5.82-3.29,7.93-4.72Z"/><path class="cls-1" d="M24.78,19.9A21.14,21.14,0,0,0,26.4,27,91.58,91.58,0,0,0,36,21.3l2.08,1.88a1,1,0,0,1-.93.2,97.23,97.23,0,0,1-9.9,5.4A16,16,0,0,0,37.1,36a13.87,13.87,0,0,0-2.36,2.36c-8.15-2.72-12-8.88-12.54-17.92A54.85,54.85,0,0,1,14,25.38l.73.12c-.1.24-.35.44-.89.52L11.74,34.3l12-1.76-.46,2.28c-6.57,1.12-13.53,2.24-17.9,2.88a1,1,0,0,1-.67.6l-.51-3c1.36-.16,3-.4,4.8-.64l2-7.84a71,71,0,0,1-8.09,3,10.7,10.7,0,0,0-1.2-2.2A62.81,62.81,0,0,0,19.26,19.9h-15l.6-2.36H21.55l1-4H10.38L11,11.22H23.16l1-3.84H9.63L10.23,5H24.75l1-4,3.42.24c-.11.28-.36.48-.9.56L27.47,5h15l-.61,2.36h-15l-1,3.84H38.56L38,13.5H25.3l-1,4H41.18l-.6,2.36Z"/><path class="cls-1" d="M61.51,38.69a8.5,8.5,0,0,0-1.24-1.86l-1-1.07,1.38-.55c1.21-.48,2.44-1.05,3.65-1.67H54.65l-1.48,5.8H48.54L50,33.54H39.51l1.09-4.28H51.12l.23-.88h-7.8L46.89,15.3H67.23l-1.5,5.89.07,0a52,52,0,0,0,13-8.85l.48-.46,4.46,1.88-.66,1a1.92,1.92,0,0,1-1.25.77,67.33,67.33,0,0,1-13.72,9.37l-.91.46-.44-.92a7,7,0,0,0-1.26-1.63l-.18-.17-1.47,5.77H56l-.23.88H65.9l-1,4a43.68,43.68,0,0,0,11.89-9.1l.47-.54,4.6,1.89-.66,1a1.78,1.78,0,0,1-1.21.74,54.21,54.21,0,0,1-17.17,12l-.89.38ZM60.2,24.58l.23-.92H49.3l-.24.92Zm1.18-4.64.22-.84H50.46l-.21.84Zm-17.15-5.2,1.09-4.24h6.4a15.27,15.27,0,0,0-.22-2.88h-4l1.07-4.16h9.2L58.59.05,64.1.38l-.51,1.29a1.81,1.81,0,0,1-1.05,1l-.2.79h9.08L70.36,7.62H67.62l-.22.28a1.77,1.77,0,0,1-1.12.67c-.49.71-1,1.35-1.37,1.93h2.74l-.37-.32,1.37-.66A48.08,48.08,0,0,0,80.48,1.16l.46-.48,4.68,1.85-.79,1.05a1.9,1.9,0,0,1-1.28.74A59.74,59.74,0,0,1,71,13.18l-.92.48-.14-.3-.35,1.38ZM59.87,10.5h0c.59-.76,1.35-1.84,2-2.87h-6a15.44,15.44,0,0,1,.22,2.88Z"/><path class="cls-1" d="M64,32.54H53.87l-1.48,5.8H49.83l1.48-5.8H40.8l.58-2.28H51.9l.73-2.88h-7.8L47.67,16.3H65.94L63.11,27.38H55.19l-.73,2.88H64.61Zm5.38-21-.57,2.24H45.52l.57-2.24H61.73l-1.06-.4a40.12,40.12,0,0,0,3-4.48H48.74l.55-2.16h9.2l.86-3.36,3.31.2c-.11.28-.4.48-.94.56l-.67,2.6h9.08l-.55,2.16h-5l2.06.68a1,1,0,0,1-.88.32c-.76,1.12-1.89,2.72-2.87,3.88ZM48.52,22.66l-.75,2.92H61l.75-2.92Zm1.17-4.56L49,20.94h13.2l.72-2.84Zm3-6.6a15.08,15.08,0,0,0-.23-4.4l2.29-.36A13.32,13.32,0,0,1,55.14,11ZM80.36,25.94a1,1,0,0,1-.85.32,52.82,52.82,0,0,1-17.1,12A9.47,9.47,0,0,0,61,36.14,46.1,46.1,0,0,0,77.53,24.78Zm1.92-11.76a1,1,0,0,1-.85.36A65.63,65.63,0,0,1,67.7,24a7.68,7.68,0,0,0-1.47-1.92,53.73,53.73,0,0,0,13.31-9ZM84,3a1,1,0,0,1-.9.36,58.78,58.78,0,0,1-12.56,9,6.9,6.9,0,0,0-1.48-1.88,48.38,48.38,0,0,0,12.1-8.56Z"/><path class="cls-1" d="M112,39.34a5.13,5.13,0,0,1-4.09-1.93c-3.74-4.46-2.81-15.81-1.26-25H85.27l1.18-4.64h21c.47-2.22,1-4.49,1.53-6.76l.19-.81,5.76.31-.3,1.18a1.72,1.72,0,0,1-.27.58L117.58.05l.58.47a24.57,24.57,0,0,1,5,5.22l.47.77-1.67,1.27h2.67l-1.18,4.64h-12c-1.82,10.65-1.69,19,.37,21.49a1.36,1.36,0,0,0,1.11.59c.33-.12,1.2-1.21,3-7l.54-1.81,1.19,1.47a4.91,4.91,0,0,0,1.61,1.22l.87.35-.29.89C117.6,36.19,115.87,39.34,112,39.34Zm6.64-31.56a23.89,23.89,0,0,0-3.88-4.19l-.95-.79-.29.13c-.44,1.77-.82,3.37-1.14,4.85ZM79.75,33.72l.92-.17c1.82-.32,4.73-.86,8.49-1.63L91.88,21.3H84.4l1.16-4.56h20l-1.16,4.56H96.62l-2.46,9.61c2.59-.54,5.25-1.1,7.85-1.67l1.45-.31-.76,4.47-.65.15c-6.53,1.55-14.14,3.24-19.53,4.36a2.21,2.21,0,0,1-1.1.72l-1.13.3Z"/><path class="cls-1" d="M95.84,20.3l-3,11.92c3.09-.64,6.3-1.32,9.44-2l-.41,2.36C94.54,34.3,86.74,36,81.89,37a1.09,1.09,0,0,1-.72.64l-.33-3.12c2.48-.44,5.63-1,9.13-1.76L93.16,20.3H85.68l.66-2.56h17.92l-.66,2.56Zm26.79-8.88h-12c-2.31,13-2,24.08,2.32,24.08,1.16,0,2.28-2.32,3.91-7.76a5.61,5.61,0,0,0,2,1.52c-2.32,7-3.92,9.08-6.88,9.08-6.52,0-6.74-12.44-4.16-26.92H86.55l.68-2.64h21c.51-2.48,1.07-5,1.68-7.52l3.71.2c-.09.36-.39.56-1,.64-.57,2.24-1.1,4.48-1.54,6.68H123.3ZM117.54,1.3a23.53,23.53,0,0,1,4.73,5L119.94,8a23.28,23.28,0,0,0-4.59-5.2Z"/><path class="cls-1" d="M134.1,39.18,137,27.94H127.6l-.61,2.4h-4.74l6.36-24.88h14.11L144.12,0l5.74.39-.51,1.28a1.81,1.81,0,0,1-1,1l-.71,2.79h14.84l-6.3,24.64H151.3l.55-2.16h-10L139,39.18ZM153,23.38l1.14-4.44h-10L143,23.38Zm-14.88,0,1.14-4.44H129.9l-1.13,4.44Zm17.17-9,1.12-4.36h-10l-1.11,4.36Zm-14.88,0,1.12-4.36h-9.38l-1.11,4.36Z"/><path class="cls-1" d="M146.3,6.46h14.84L155.35,29.1h-2.76l.55-2.16H141.06l-2.87,11.24h-2.8l2.88-11.24H126.83l-.62,2.4h-2.68l5.85-22.88H143.5l1.38-5.4,3.54.24c-.11.28-.4.48-.94.56ZM127.48,24.38h11.44l1.65-6.44H129.13ZM142.84,9.06H131.4l-1.63,6.36h11.44Zm-1.12,15.32H153.8l1.64-6.44H143.37Zm16-15.32H145.64L144,15.42h12.08Z"/><path class="cls-1" d="M157,34.69l.68-.38c2-1.16,4.69-2.87,7.18-4.62l2.31-9h-5.88l1.17-4.56H173l-3.28,12.84.07,0c6.21-3.36,11.57-9.71,15.5-18.38l.34-.74.92.21c.1-1,.22-2.06.38-3.21h-7.65l1.16-4.56h11.68l-.2,1.16c-2.34,13.81-.69,21.88,5.21,25.42l1.45.87-1.46.85a16.61,16.61,0,0,0-2.45,1.87l-.58.54-.66-.44c-4.24-2.83-6.56-7.57-7.06-14.41-3.91,6.49-8.67,11.35-14.17,14.45l-.24.14c2.53,1.27,6.43,1.27,11.23,1.27,4.48,0,9.52-.13,12.53-.32l2.18-.14-1.31,1.74a12.68,12.68,0,0,0-1.44,2.45l-.22.64-.67,0c-2.84.12-7.24.2-11.22.2-7.79,0-13.56,0-16.76-4.52-2.06,1.48-4.17,2.95-5.93,4.11a1.67,1.67,0,0,1-1,.94l-1,.4Zm12.68-4.1a5,5,0,0,0,1,1.18A5.58,5.58,0,0,0,169.67,30.59Zm1.94-20a18.66,18.66,0,0,0-5.07-6.12l-1.06-.85L169.62.87l.57.43A21.12,21.12,0,0,1,176,8l.35.76-4.3,3Z"/><path class="cls-1" d="M171.7,17.1l-3.34,13.08c1.9,4.76,7.62,4.76,14.82,4.76,4.32,0,9.43-.12,12.6-.32a13.07,13.07,0,0,0-1.58,2.72c-2.79.12-7.21.2-11.17.2-8.24,0-13.72,0-16.49-5-2.41,1.76-5,3.56-7,4.92a.73.73,0,0,1-.53.64l-.8-3c2.25-1.28,5.08-3.12,7.57-4.88l2.72-10.64h-5.88l.65-2.56Zm-2.12-15a20.34,20.34,0,0,1,5.54,6.32l-2.58,1.8a19.71,19.71,0,0,0-5.37-6.52Zm11.63,1.12h9.72c-2.14,12.6-1.33,22.24,5.68,26.44a18.16,18.16,0,0,0-2.64,2c-5-3.36-6.83-9.4-6.71-17.24C183.33,22,178.15,28,171.7,31.66a6.56,6.56,0,0,0-1.44-1.88c6.73-3.64,12.09-10.36,15.93-18.84l1.25.28c.13-1.76.35-3.56.63-5.44h-7.52Z"/><path class="cls-1" d="M217.62,37.7A8.28,8.28,0,0,0,216,36.23l-1.26-.92,1.36-.76a28.56,28.56,0,0,0,10.81-10.9A31.35,31.35,0,0,0,219,21.28c-5.13,9.57-8.55,12.66-13.86,12.66a5.29,5.29,0,0,1-4.42-1.8c-1.39-1.79-1-4.36-.66-5.73,1.79-7,9.75-9.67,16.28-9.86,1.39-2.74,2.81-5.87,4.14-9.17-2.63.19-7,.48-9.57.65a3,3,0,0,1-1.21.57l-1.4.29.79-5.48.84,0c3.56-.13,11.05-.61,13.43-.84.11,0,.14,0,.36-.16l.21-.14.56-.34L228,4.4l-.74.84a2.82,2.82,0,0,1-1.16.77c-1.42,3.53-3.16,7.4-4.89,10.86a36.93,36.93,0,0,1,8,2.4c1.13-2.2,2.35-4.93,3.48-7.82l.31-.8L238.84,12l-.6,1.15a2.37,2.37,0,0,1-1.53,1.17c-1,2.24-2.06,4.61-3.18,6.8,1.8.89,3.5,1.8,5.06,2.7l1,.56-3.15,4.3-.78-.44c-1.6-.92-3.12-1.79-4.63-2.56-3.51,5.73-7.36,9.66-12.07,12.32l-.77.43Zm-3.68-16.55c-5,.47-8.56,2.64-9.35,5.76a2.69,2.69,0,0,0,.09,2.16c.07.09.27.35.94.35C207.87,29.42,209.71,28.81,213.94,21.15Z"/><path class="cls-1" d="M237.35,12.66a1.47,1.47,0,0,1-1.34.72c-1.15,2.76-2.53,5.68-3.85,8.16,1.93.92,3.94,2,5.92,3.12l-2,2.68c-1.88-1.08-3.7-2.12-5.51-3-3.4,5.76-7.23,10-12.18,12.76a10,10,0,0,0-1.85-1.68c4.9-2.76,8.46-6.52,11.76-12.24a32.64,32.64,0,0,0-9.92-3c-5.33,10.08-8.49,12.72-13.29,12.72s-4.74-3.84-4.11-6.28c1.58-6.2,8.76-9.08,15.93-9.12a118.6,118.6,0,0,0,5-11.28c-1.92.16-8.43.6-11.52.8a1.76,1.76,0,0,1-1,.56L210,4.38c3.47-.12,11-.6,13.5-.84a2,2,0,0,0,1-.44l2.1,1.48a2.32,2.32,0,0,1-1.16.64c-1.78,4.44-3.91,9-5.67,12.48a33.88,33.88,0,0,1,10,2.84,83.51,83.51,0,0,0,3.95-8.72Zm-21.69,7.4c-5.78.08-11,2.36-12,6.6-.57,2.24.12,3.76,2,3.76C208.54,30.42,210.71,29.42,215.66,20.06Z"/><path class="cls-1" d="M259,37.7c-3,0-5.29-.87-6.52-2.46a5.11,5.11,0,0,1-.78-4.55c1.17-4.56,6.14-6.63,10.27-6.63a14.26,14.26,0,0,1,2.9.29c.25-1.22,1.41-7,1.69-8.35-1,0-2.09.06-2.87.06h-7.35l1.11-4.61h.8c1.26,0,2.52,0,3.79,0,2.11,0,3.87-.05,5.49-.14.73-3.49,1.3-6.1,1.88-8.64l.19-.8,6.2.19-.46,1.29A2.26,2.26,0,0,1,274,4.7c-.42,1.77-.84,3.59-1.29,5.57l-.15.68a37.91,37.91,0,0,0,6.66-1.41l1.48-.46-.63,5-.63.19a44.45,44.45,0,0,1-7.91,1.41c-.83,3.8-1.66,7.69-2.19,10.19a21.32,21.32,0,0,1,6.49,5l.55.65-3.59,4.16-.74-1A15.64,15.64,0,0,0,268.13,31C267.28,33.68,265.26,37.7,259,37.7Zm2.4-9.24c-1.7,0-4.72.56-5.26,2.65a1.16,1.16,0,0,0,.16,1.12c.48.62,1.73,1,3.33,1,2.41,0,3.53-1,4.26-3.89l.11-.47A9.64,9.64,0,0,0,261.41,28.46Zm-20.33,7.73c-.68-3.9,1.28-12.09,1.9-14.5a121,121,0,0,1,7-18.85l.33-.72L256,3.29l-.52,1.14A2.27,2.27,0,0,1,254,5.63a91.31,91.31,0,0,0-6.43,16.6c-.22.86-.43,1.71-.63,2.53,1-1.55,2-3,2.67-3.92l.76-1.08,2.69,3.31-.46.62c-3.07,4.15-6.33,9-6.68,10.34a4.12,4.12,0,0,0-.07,1.56l.11,1-4.73.54Z"/><path class="cls-1" d="M242.06,36c-.5-2.88.54-8.84,1.88-14.08a121.9,121.9,0,0,1,6.94-18.68l3.69.76a1.43,1.43,0,0,1-1.23.72A92.64,92.64,0,0,0,246.61,22,51.27,51.27,0,0,0,245,29.54c1.49-2.4,4.08-6.24,5.4-8.12l1.37,1.68c-2,2.72-6.37,8.8-6.85,10.68a5,5,0,0,0-.09,1.92Zm16.19-23.56c3.35,0,6.7.08,10.12-.16.72-3.44,1.35-6.4,2-9.36l4,.12a1.52,1.52,0,0,1-1.26.84c-.61,2.56-1.2,5.16-1.89,8.2a40.94,40.94,0,0,0,8.24-1.6l-.35,2.8a44,44,0,0,1-8.45,1.44c-1,4.44-2,9.12-2.5,11.68a20.75,20.75,0,0,1,6.86,5.08l-2.22,2.56a16.66,16.66,0,0,0-5.31-4.56c-.91,3.4-2.52,7.2-8.52,7.2-4.68,0-7.23-2.24-6.33-5.76,1-4.08,5.63-5.88,9.3-5.88a12.48,12.48,0,0,1,3.67.52c.53-2.52,1.36-6.72,2.16-10.64-1.26.08-2.95.12-4.11.12h-6.08Zm6.94,15.72a11.85,11.85,0,0,0-3.78-.72c-2.44,0-5.58.88-6.23,3.4-.57,2.24,1.54,3.36,4.46,3.36s4.41-1.44,5.23-4.64Z"/><polygon class="cls-1" points="304.7 35.9 305.26 33.7 280.07 33.7 281.26 29.02 306.46 29.02 310.94 11.5 286.14 11.5 287.34 6.82 317.12 6.82 309.68 35.9 304.7 35.9"/><path class="cls-1" d="M315.83,7.82,308.91,34.9H306l.56-2.2h-25.2L282,30h25.19l5-19.52h-24.8l.68-2.68Z"/><path class="cls-1" d="M324,37.82a12.64,12.64,0,0,0-1.61-1.76l-1.05-1,1.31-.62c6.85-3.28,10.89-7.4,13.67-14H320.22l1.19-4.64H338c.62-2,1.16-4,1.77-6.26-4.09.81-8.87,1.55-12.85,2l-1.1.12V10.5a10.92,10.92,0,0,0-.22-2.11l-.24-1.08,1.1-.13c13.5-1.56,22.67-4.17,26-5.45l.76-.3,2.59,4-1.07.47a2.26,2.26,0,0,1-.95.21,2.18,2.18,0,0,1-.35,0c-2,.66-4.74,1.44-7.5,2.12a2,2,0,0,1-1.12,1.11c-.58,2.15-1.18,4.34-1.81,6.43h13.65l-1.19,4.64h-14c-3.31,8.58-8,13.75-16.05,17.74l-.78.38Z"/><path class="cls-1" d="M354.62,19.42H340.67c-2.85,7.68-6.92,13.44-15.8,17.84a13.91,13.91,0,0,0-1.75-1.92c8.2-3.92,12.07-8.88,14.71-15.92H321.51l.68-2.64H338.7c.88-2.64,1.57-5.36,2.43-8.56-4.31.92-9.82,1.8-14.34,2.28a11.44,11.44,0,0,0-.25-2.32C341,6.5,350,3.74,352.75,2.66L354.27,5a1.3,1.3,0,0,1-.55.12,1.53,1.53,0,0,1-.43,0c-2.46.84-6.28,1.88-9.64,2.64l1.29.12a1.15,1.15,0,0,1-1,.68c-.81,3-1.54,5.72-2.35,8.24H355.3Z"/><path class="cls-1" d="M362.79,37.14a7.61,7.61,0,0,0-.94-2l-.82-1.2,1.41-.33c10.86-2.56,18.47-7.68,23.18-15.63H359.57l1.2-4.72H389l.73-.38,3.51,2-.68.9a2.06,2.06,0,0,1-.71.58c-6.27,11.75-14.36,18-27.82,21.47l-1,.25Zm3.29-29.48L367.27,3h24.86l-1.19,4.64Z"/><path class="cls-1" d="M391.74,15.22a1.29,1.29,0,0,1-.62.4c-6.37,12.08-14.55,18-27.36,21.28a8.5,8.5,0,0,0-1.09-2.32c11.58-2.72,19.77-8.32,24.66-17.6H360.85l.7-2.72h27.68l.46-.24Zm-1.57-8.56h-22.8L368.05,4h22.79Z"/><path class="cls-1" d="M398.4,36.34a2.81,2.81,0,0,1-2.29-1.07,3.19,3.19,0,0,1-.5-2.78,4.5,4.5,0,0,1,4.12-3.35A2.81,2.81,0,0,1,402,30.22a3.19,3.19,0,0,1,.49,2.77A4.5,4.5,0,0,1,398.4,36.34Zm-.23-9,5.47-23.92h5.95L402.82,27.3Z"/><path class="cls-1" d="M396.58,32.74a3.52,3.52,0,0,1,3.15-2.6,1.91,1.91,0,0,1,1.81,2.6,3.51,3.51,0,0,1-3.14,2.6A1.92,1.92,0,0,1,396.58,32.74Zm2.85-6.44,5-21.92h3.84l-6.2,21.92Z"/></g></g></svg>