<svg xmlns="http://www.w3.org/2000/svg" viewBox="0 0 671.29 620.57"><defs><style>.oic2020_logo_cls-1{fill:#fff;}.cls-2{fill:#0e0f0d;}</style></defs><g id="レイヤー_2" data-name="レイヤー 2"><g id="レイヤー_1-2" data-name="レイヤー 1"><path class="oic2020_logo_cls-1" d="M519.15,610.86l4.7-24.73H480.49l2.82-15,48.52-62h27.7l-11.27,59.79h11.9L557,586.13H545l-4.7,24.73Zm8-42,4.7-22.07c1.41-6.42,3.28-13.46,4.85-19.88h-.63c-4.53,6.89-8.45,13.31-13.3,20L506,568.6l-.15.31Z"/><path class="cls-2" d="M547.79,617.59H524.62l4.7-24.73H486l3.09-16.45.15-.19L538,513.85h29.4l-11.27,59.79H568l-3.5,19.22H552.48Zm-20.75-2h19.09l4.7-24.73h12l2.77-15.22h-11.9L565,515.85H539l-48.07,61.41-2.55,13.6h43.36Zm7.58-40H510.91l1-1.92,16.75-21.6c3.34-4.64,6.21-9.08,9.24-13.79,1.31-2,2.64-4.09,4-6.19l.29-.45h2.44l-.3,1.24c-.52,2.13-1.07,4.32-1.63,6.54-1.12,4.45-2.28,9-3.22,13.32Zm-20.14-2H533l4.53-21.28c1-4.31,2.11-8.92,3.23-13.38.2-.78.4-1.56.59-2.34l-1.79,2.77c-3,4.73-5.93,9.2-9.32,13.9Z"/><path class="oic2020_logo_cls-1" d="M112.63,45.67c0,20-7,39.33-19.51,51.68-10.23,9.91-24.05,15.76-40.46,15.76C24.22,113.11,8.29,93,8.29,67.45,8.29,47.62,15.6,28,28.44,15.6A57.4,57.4,0,0,1,68.42,0C97.35,0,112.63,19.5,112.63,45.67ZM46.81,27.79C38,36.4,33.15,53.47,33.15,66.63c0,15.44,7,27,22.92,27,6.83,0,13.33-3.09,18.36-8C83.05,77,87.76,59,87.76,46.32c0-13.65-4.87-26.82-22.1-26.82A25.94,25.94,0,0,0,46.81,27.79Z"/><path class="oic2020_logo_cls-1" d="M118.15,111.33,139,1.79h27.46l14.47,41.77c4.39,14,7.31,25.35,9.91,37.38h.49c.49-11.22,2-23.25,5-39.33L203.8,1.79h21.78L204.94,111.33H180.72L165.45,67.61a343.7,343.7,0,0,1-10.73-38.19l-.49.16c-1.3,10.56-3.9,26.16-7.15,43.39l-7.15,38.36Z"/><path class="oic2020_logo_cls-1" d="M247.2,1.79h23.4L253.7,90.85h42.09l-3.9,20.48h-65.5Z"/><path class="oic2020_logo_cls-1" d="M349.26,1.79l-20.8,109.54h-23.4L325.86,1.79Z"/><path class="oic2020_logo_cls-1" d="M350.07,111.33,370.88,1.79h27.46l14.47,41.77c4.38,14,7.31,25.35,9.91,37.38h.49c.49-11.22,2-23.25,5-39.33l7.47-39.82H457.5L436.86,111.33H412.64L397.37,67.61a343.7,343.7,0,0,1-10.73-38.19l-.49.16c-1.3,10.56-3.9,26.16-7.15,43.39l-7.15,38.36Z"/><path class="oic2020_logo_cls-1" d="M529.5,64.85h-39l-5,26.49h43.72l-3.74,20H458.31L479.12,1.79H544l-3.9,20H498.78l-4.55,23.4h39Z"/><path class="oic2020_logo_cls-1" d="M47.29,168.61,26.49,278.15H3.09l20.8-109.54Z"/><path class="oic2020_logo_cls-1" d="M48.11,278.15l20.8-109.54H96.37l14.47,41.77c4.39,14,7.31,25.35,9.91,37.38h.49c.49-11.22,2-23.24,5-39.33l7.47-39.82h21.78L134.89,278.15H110.68L95.4,234.43a343.7,343.7,0,0,1-10.73-38.19l-.48.16C82.88,207,80.28,222.57,77,239.79l-7.15,38.36Z"/><path class="oic2020_logo_cls-1" d="M193.07,189.09H164.15l4.06-20.48h81.42l-3.9,20.48H216.48l-16.74,89.06h-23.4Z"/><path class="oic2020_logo_cls-1" d="M313.18,231.67h-39l-5,26.49h43.71l-3.73,20H242l20.8-109.54h64.84l-3.9,20H282.46L277.91,212h39Z"/><path class="oic2020_logo_cls-1" d="M346.66,170.72c7.31-1.78,18.37-2.92,29.25-2.92,10.41,0,21.13,1.62,28.77,6.34a23.75,23.75,0,0,1,12.19,21.45c0,16.25-10.89,26.33-24.87,30.88v.65c6.51,2.76,9.27,10.07,10.41,20,1.3,12.19,2.27,26.49,4.22,31H382.58c-1-2.93-2.11-12.35-3.25-25.84-1-13.33-5.53-17.39-14.79-17.39h-7.15l-8.13,43.23H326Zm14.14,46.65h9.75c12.68,0,21.94-7.64,21.94-18.37,0-8.77-7.47-12.68-16.74-12.68a38,38,0,0,0-9.1.82Z"/><path class="oic2020_logo_cls-1" d="M420.77,278.15l20.81-109.54H469l14.47,41.77c4.38,14,7.31,25.35,9.91,37.38h.49c.48-11.22,1.95-23.24,5-39.33l7.48-39.82H528.2L507.56,278.15H483.34l-15.27-43.72a341.55,341.55,0,0,1-10.73-38.19l-.49.16c-1.3,10.57-3.9,26.17-7.15,43.39l-7.15,38.36Z"/><path class="oic2020_logo_cls-1" d="M85.81,441.88c-5.85,2.6-15.76,4.72-28.93,4.72C28,446.6,8.45,429,8.45,400.12c0-24.54,11.05-43.72,27.63-54.77,11.38-8,24.87-11.71,40.3-11.71,11.87,0,20.81,2.77,23.89,4.72l-6.33,19c-3.25-1.62-10.4-3.57-19.83-3.57s-18.37,2.92-25,8.45c-9.26,7.47-15.11,20-15.11,35.27,0,17.39,9.75,29.09,29.09,29.09,7.64,0,15.27-1.3,20.8-3.58Z"/><path class="oic2020_logo_cls-1" d="M203.48,379.31c0,20-7,39.33-19.5,51.68-10.24,9.92-24.06,15.77-40.47,15.77-28.44,0-44.37-20.15-44.37-45.67,0-19.83,7.31-39.49,20.15-51.84a57.41,57.41,0,0,1,40-15.61C188.2,333.64,203.48,353.15,203.48,379.31Zm-65.82-17.87c-8.78,8.61-13.65,25.67-13.65,38.84,0,15.44,7,27,22.91,27,6.83,0,13.33-3.09,18.37-8,8.61-8.61,13.32-26.65,13.32-39.33,0-13.65-4.87-26.81-22.1-26.81A25.94,25.94,0,0,0,137.66,361.44Z"/><path class="oic2020_logo_cls-1" d="M209,445l20.8-109.54h27.47l14.46,41.77c4.39,14,7.31,25.35,9.91,37.38h.49c.49-11.21,1.95-23.24,5-39.33l7.47-39.82h21.78L295.79,445H271.58L256.3,401.25a343.7,343.7,0,0,1-10.73-38.19l-.48.16c-1.3,10.57-3.9,26.17-7.15,43.4L230.78,445Z"/><path class="oic2020_logo_cls-1" d="M354,355.91H325.05l4.06-20.48h81.42l-3.9,20.48H377.38L360.64,445h-23.4Z"/><path class="oic2020_logo_cls-1" d="M474.08,398.49h-39L430,425h43.72L470,445H402.9l20.8-109.54h64.84l-3.9,20H443.36l-4.55,23.41h39Z"/><path class="oic2020_logo_cls-1" d="M491.64,419.62a51.48,51.48,0,0,0,25.84,7c9.1,0,17.39-4.23,17.39-12.84,0-6.18-4.72-10.24-14.79-15.44-11.71-6.34-22.76-14.79-22.76-29.09,0-22.11,19.34-35.6,43.23-35.6,13.33,0,21.13,2.93,25.84,5.53l-7.31,19.5a43.53,43.53,0,0,0-20.48-4.87c-10.89,0-16.57,5.52-16.57,11.54,0,6.33,6.66,10.24,15.92,15.44,13.33,7,21.78,15.92,21.78,28.92,0,24.38-20.15,36.9-44.53,36.9-15.28,0-26.17-3.9-31.37-7.8Z"/><path class="oic2020_logo_cls-1" d="M606.54,355.91H577.61l4.06-20.48H663.1l-3.9,20.48H629.94L613.2,445H589.8Z"/><path class="oic2020_logo_cls-1" d="M0,611.79l2.76-15.11,22.76-17.55C46.64,561.9,60.3,549.55,60.3,536.87c0-7.47-5.21-12.84-14.63-12.84a41.61,41.61,0,0,0-22.27,6.18l-4.71-16.74a65.21,65.21,0,0,1,32.67-9.1c21.45,0,33,12.51,33,28.76,0,21.62-17.23,36.57-35.92,50.87L38,591.48v.32H75.9l-3.74,20Z"/><path class="oic2020_logo_cls-1" d="M174.71,540.61c0,33-15.93,73-49.24,73-21.94,0-30.56-16.9-30.56-38,0-33.31,16.9-71.18,49.41-71.18C167.07,504.37,174.71,521.76,174.71,540.61Zm-56.88,35.75c0,7.8,1.3,18.69,10.56,18.69,16.09,0,23.24-40.3,23.24-54.28,0-7-1-17.88-9.91-17.88C126,522.89,117.83,560.92,117.83,576.36Z"/><path class="oic2020_logo_cls-1" d="M175.85,611.79l2.76-15.11,22.75-17.55c21.13-17.23,34.78-29.58,34.78-42.26,0-7.47-5.2-12.84-14.62-12.84a41.61,41.61,0,0,0-22.27,6.18l-4.71-16.74a65.2,65.2,0,0,1,32.66-9.1c21.46,0,33,12.51,33,28.76,0,21.62-17.23,36.57-35.92,50.87l-10.4,7.48v.32h37.86l-3.73,20Z"/><path class="oic2020_logo_cls-1" d="M350.56,540.61c0,33-15.93,73-49.25,73-21.94,0-30.55-16.9-30.55-38,0-33.31,16.9-71.18,49.41-71.18C342.92,504.37,350.56,521.76,350.56,540.61Zm-56.88,35.75c0,7.8,1.3,18.69,10.56,18.69,16.09,0,23.24-40.3,23.24-54.28,0-7-1-17.88-9.91-17.88C301.8,522.89,293.68,560.92,293.68,576.36Z"/><path class="oic2020_logo_cls-1" d="M389.72,611.79,399,582.7H385.66l2.44-14.62h15.6l6-18.69H395.9l2.44-14.63h15.92l9.11-28.6h14.14l-9.11,28.6h14.31l9.1-28.6h14.3l-9.1,28.6h13.16l-2.44,14.63H452.46l-5.85,18.69H460.1l-2.44,14.62H441.73l-9.1,29.09H418.17l9.26-29.09H413.29l-9.1,29.09Zm42.42-43.71,6-18.69H424l-5.85,18.69Z"/><path class="cls-2" d="M59.59,120.1c-27.16,0-45.4-18.77-45.4-46.7,0-20.6,7.65-40.26,20.47-52.59a58.58,58.58,0,0,1,40.7-15.9c27.9,0,45.24,17.9,45.24,46.71,0,20.58-7.41,40.18-19.81,52.42C89.93,114.55,75.69,120.1,59.59,120.1ZM75.36,7A56.52,56.52,0,0,0,36.09,22.31c-12.41,11.94-19.83,31-19.83,51.09,0,26.69,17.42,44.63,43.33,44.63,15.55,0,29.29-5.35,39.75-15.47,12-11.86,19.18-30.9,19.18-50.94C118.52,24.09,102,7,75.36,7ZM63,100.6c-15.23,0-24-10.21-24-28C39.05,59.73,43.85,42,53,33a26.87,26.87,0,0,1,19.58-8.59c14.93,0,23.15,9.89,23.15,27.85,0,12.81-4.78,31.21-13.64,40.06C76.59,97.67,69.81,100.6,63,100.6Zm9.58-74.11a24.83,24.83,0,0,0-18.1,8h0c-8.76,8.6-13.34,25.68-13.34,38.1,0,16.49,8,26,21.88,26,6.26,0,12.53-2.73,17.64-7.68,8.44-8.44,13-26.18,13-38.58C93.66,40.51,90,26.49,72.59,26.49Z"/><path class="cls-2" d="M212.74,118.32H186.92L171.4,73.9c-4.14-12.56-7.05-22.09-9.77-33.89C160.25,50,158,63.67,155,79.12l-7.31,39.2H123.84L145,6.7H174.1l14.7,42.47c3.55,11.3,6.24,21.13,8.72,32a287.13,287.13,0,0,1,4.72-33.76L209.88,6.7h23.89Zm-24.34-2.08H211L231.26,8.78H211.6l-7.32,39c-3,15.46-4.51,27.54-5,39.18l0,1H196.9l-.18-.82c-2.82-13-5.77-24.19-9.89-37.29l-14.21-41H146.75L126.34,116.24H146l7-37.51c3.35-17.77,5.89-33.16,7.14-43.33l.08-.65,2.21-.73.24,1.13a347.16,347.16,0,0,0,10.7,38.09Z"/><path class="cls-2" d="M299.68,118.32h-67.6L253.27,6.7h25.52l-16.9,89.06H304Zm-65.1-2.08H298l3.5-18.4H259.38l16.9-89.06H255Z"/><path class="cls-2" d="M336.26,118.32H310.74L331.94,6.7h25.51Zm-23-2.08h21.29L354.94,8.78H333.65Z"/><path class="cls-2" d="M444.66,118.32H418.84L403.32,73.9c-4.14-12.57-7.05-22.1-9.77-33.89-1.38,10-3.68,23.66-6.59,39.11l-7.31,39.2H355.76L377,6.7H406l14.7,42.47c3.55,11.3,6.24,21.14,8.72,32a286.56,286.56,0,0,1,4.72-33.76L441.8,6.7h23.89Zm-24.34-2.08h22.61L463.18,8.78H443.52l-7.32,39c-3,15.46-4.51,27.54-5,39.18l0,1h-2.32l-.18-.82c-2.82-13-5.77-24.19-9.89-37.29l-14.21-41H378.67L358.26,116.24h19.67l7-37.51c3.35-17.77,5.89-33.16,7.14-43.33l.08-.65,2.21-.73.24,1.13a345,345,0,0,0,10.7,38.09Z"/><path class="cls-2" d="M533.23,118.32H464L485.19,6.7h67l-4.31,22.07H506.57l-4.14,21.32h39l-4.14,21.75h-39l-4.65,24.41h43.72Zm-66.73-2.08h65l3.35-17.91H491.14l5.43-28.57h39l3.35-17.59h-39l4.95-25.48h41.28l3.5-17.91H486.91Z"/><path class="cls-2" d="M34.29,285.14H8.77L30,173.52H55.48Zm-23-2.08H32.57L53,175.6H31.69Z"/><path class="cls-2" d="M142.69,285.14H116.87l-15.52-44.41c-4.14-12.58-7-22.11-9.77-33.9-1.38,10-3.68,23.67-6.59,39.11l-7.31,39.2H53.79L75,173.52h29.07L118.76,216c3.54,11.3,6.23,21.14,8.71,31.95a287.13,287.13,0,0,1,4.72-33.76l7.64-40.66h23.89Zm-24.34-2.08H141L161.22,175.6H141.55l-7.32,39c-3,15.46-4.51,27.54-5,39.18l0,1h-2.32l-.18-.82c-2.81-13-5.77-24.18-9.89-37.29l-14.21-41H76.7L56.3,283.06H76l7-37.5c3.35-17.78,5.89-33.17,7.14-43.33l.08-.65,2.21-.74.24,1.13a347.16,347.16,0,0,0,10.7,38.09Z"/><path class="cls-2" d="M207.54,285.14H182l16.74-89.06H169.82l4.47-22.56h83.53l-4.29,22.56H224.28Zm-23-2.08h21.29L222.55,194h29.26l3.5-18.4H176L172.35,194h28.91Z"/><path class="cls-2" d="M316.91,285.14H247.68l21.19-111.62h67l-4.31,22.07H290.25l-4.14,21.33h39L321,238.66H282l-4.64,24.41H321Zm-66.72-2.08h65l3.35-17.91H274.82l5.43-28.57h39L322.6,219h-39l5-25.48h41.28l3.5-17.91H270.59Z"/><path class="cls-2" d="M415.14,285.14H388.77l-.24-.71c-1.22-3.65-2.47-16.2-3.3-26.08-1-13.75-5.81-16.44-13.76-16.44h-6.29l-8.12,43.23H331.7l21-109.32.65-.15c7.46-1.83,18.76-3,29.5-3,8.57,0,20.61,1.13,29.31,6.49,5.78,3.42,12.68,10.07,12.68,22.34,0,14.46-8.71,25.8-24,31.32,5.26,3,8.31,9.48,9.52,20.08.29,2.65.55,5.39.82,8.1.92,9.46,1.87,19.23,3.33,22.65Zm-24.85-2.08h21.82c-1.3-4.38-2.12-12.88-3-21.81-.26-2.71-.53-5.45-.81-8.08-1.23-10.75-4.34-16.84-9.78-19.15l-.63-.26v-2.09l.72-.24c21-6.84,24.15-21.66,24.15-29.89A22.79,22.79,0,0,0,411.09,181c-8.3-5.12-19.94-6.19-28.24-6.19-10.28,0-21.05,1-28.36,2.74L334.21,283.06h21.13l8.12-43.23h8c10.43,0,14.86,5.15,15.83,18.35C388.38,271,389.43,279.69,390.29,283.06Zm-12.8-58.7h-11l6.21-32.12.64-.16a39.94,39.94,0,0,1,9.36-.84c11,0,17.78,5.25,17.78,13.71C400.47,216.2,390.8,224.36,377.49,224.36Zm-8.5-2.08h8.5c12.11,0,20.9-7.29,20.9-17.33,0-7.28-5.87-11.63-15.7-11.63a41.36,41.36,0,0,0-8.21.63Z"/><path class="cls-2" d="M515.36,285.14H489.54L474,240.73c-4.14-12.57-7-22.1-9.77-33.9-1.38,10-3.68,23.67-6.59,39.11l-7.31,39.2h-23.9l21.2-111.62h29.07L491.42,216c3.55,11.3,6.24,21.14,8.72,31.95a287.13,287.13,0,0,1,4.72-33.76l7.64-40.66h23.89ZM491,283.06h22.61L533.88,175.6H514.22l-7.32,39a265,265,0,0,0-5,39.18l0,1h-2.32l-.18-.82c-2.82-13-5.77-24.18-9.89-37.29l-14.21-41H449.37L429,283.06h19.66l7-37.5c3.35-17.78,5.89-33.17,7.14-43.33l.08-.65,2.2-.74.25,1.13A345,345,0,0,0,476,240.06Z"/><path class="cls-2" d="M63.82,453.59c-30,0-49.47-18.66-49.47-47.52,0-23.46,10.24-43.73,28.09-55.64,11.25-7.87,25-11.87,40.88-11.87,12.27,0,21.34,2.91,24.45,4.87l.68.44-7,20.92-1.07-.54c-3.2-1.6-10.19-3.46-19.36-3.46-9.33,0-18,2.91-24.37,8.21-9.37,7.56-14.74,20.12-14.74,34.47,0,17.83,10.23,28,28.05,28,7.58,0,15-1.27,20.41-3.5l1.29-.53,2.17,21-.69.3C86.3,451.84,75.6,453.59,63.82,453.59Zm19.5-113c-15.43,0-28.79,3.88-39.71,11.52-17.28,11.52-27.18,31.17-27.18,53.92,0,27.6,18.6,45.44,47.39,45.44,11.11,0,21.18-1.57,27.82-4.33L89.9,430.44A59.87,59.87,0,0,1,70,433.6c-18.86,0-30.13-11.27-30.13-30.13,0-15,5.65-28.13,15.51-36.08,6.74-5.59,15.87-8.68,25.68-8.68,8.62,0,15.46,1.62,19.2,3.19L106,344.79C102.58,343,94.22,340.63,83.32,340.63Z"/><path class="cls-2" d="M150.45,453.75C123.29,453.75,105,435,105,407c0-20.6,7.65-40.26,20.47-52.59a58.58,58.58,0,0,1,40.7-15.89c27.91,0,45.24,17.9,45.24,46.7,0,20.58-7.4,40.18-19.81,52.43C180.79,448.2,166.54,453.75,150.45,453.75Zm15.76-113.12A56.5,56.5,0,0,0,127,356C114.53,367.89,107.12,387,107.12,407c0,26.7,17.41,44.63,43.33,44.63,15.54,0,29.29-5.35,39.74-15.47,12-11.85,19.19-30.9,19.19-50.94C209.38,357.74,192.84,340.63,166.21,340.63Zm-12.35,93.62c-15.22,0-24-10.21-24-28,0-12.86,4.8-30.57,14-39.57a26.85,26.85,0,0,1,19.59-8.6c14.92,0,23.14,9.89,23.14,27.86,0,12.81-4.78,31.21-13.63,40.06C167.44,431.32,160.67,434.25,153.86,434.25Zm9.59-74.11a24.82,24.82,0,0,0-18.11,8l0,0c-8.76,8.59-13.34,25.67-13.34,38.1,0,16.49,8,25.94,21.88,25.94,6.26,0,12.53-2.72,17.64-7.67,8.45-8.45,13-26.19,13-38.58C184.51,374.16,180.86,360.14,163.45,360.14Z"/><path class="cls-2" d="M303.59,452H277.78l-15.52-44.41c-4.15-12.57-7-22.1-9.78-33.9-1.38,10-3.67,23.67-6.59,39.11L238.58,452H214.69l21.2-111.61H265l14.71,42.46c3.54,11.3,6.23,21.14,8.71,31.95A284.83,284.83,0,0,1,293.1,381l7.63-40.66h23.89Zm-24.34-2.07h22.62l20.25-107.47H302.45l-7.31,39c-3,15.47-4.52,27.55-5,39.19l0,1h-2.32l-.18-.82c-2.81-13-5.77-24.18-9.88-37.29l-14.22-41H237.61L217.2,449.89h19.66l7-37.51c3.35-17.78,5.89-33.16,7.14-43.33l.08-.65,2.21-.74.24,1.13a347.16,347.16,0,0,0,10.7,38.09Z"/><path class="cls-2" d="M368.44,452H342.92l16.74-89.06H330.72l4.47-22.55h83.53l-4.29,22.55H385.18Zm-23-2.07h21.29l16.74-89.07h29.26l3.5-18.4H336.9l-3.65,18.4h28.91Z"/><path class="cls-2" d="M477.82,452H408.58l21.2-111.61h67l-4.3,22.06H451.16L447,383.74h39l-4.13,21.74h-39l-4.64,24.41h43.71Zm-66.73-2.07h65L479.44,432H435.72l5.43-28.57h39l3.34-17.58h-39l4.95-25.48h41.29l3.49-17.92H431.5Z"/><path class="cls-2" d="M522.14,453.59c-15.72,0-26.83-4.14-32-8l-.64-.48,8.56-21,1,.62a50.45,50.45,0,0,0,25.3,6.84c8.14,0,16.35-3.65,16.35-11.8,0-5.3-3.72-9.1-14.22-14.52-10.87-5.88-23.32-14.6-23.32-30,0-21.57,18.21-36.63,44.27-36.63,10.83,0,19.45,1.85,26.34,5.65l.79.44-8,21.46-1.05-.57a42.47,42.47,0,0,0-20-4.75c-7.5,0-15.56,3.28-15.56,10.5,0,5.6,5.85,9.17,15.4,14.53,15,7.87,22.31,17.63,22.31,29.84C567.71,438.7,549.82,453.59,522.14,453.59ZM492,444.38c5.15,3.53,15.53,7.13,30.1,7.13,26.42,0,43.49-14.07,43.49-35.85,0-11.52-6.74-20.42-21.22-28-8.86-5-16.49-9.26-16.49-16.36,0-6.06,5.52-12.58,17.62-12.58a45.27,45.27,0,0,1,19.92,4.45L572,345.61c-6.45-3.35-14.5-5-24.55-5-24.84,0-42.19,14.21-42.19,34.56,0,14.31,11.87,22.58,22.21,28.18,9.7,5,15.33,9.29,15.33,16.35,0,9.59-9.26,13.88-18.43,13.88a53,53,0,0,1-25.33-6.53Z"/><path class="cls-2" d="M621,452H595.48l16.74-89.06H583.28l4.48-22.55h83.53L667,362.9H637.74Zm-23-2.07h21.29L636,360.82h29.25l3.51-18.4H589.46l-3.65,18.4h28.92Z"/><path class="cls-2" d="M80,618.78H5.69l3.06-16.73,23.07-17.79c20.12-16.41,34.37-29,34.37-41.44,0-7.28-5.2-11.8-13.59-11.8a40.75,40.75,0,0,0-21.72,6l-1.17.73L24.41,519l.67-.41a66,66,0,0,1,33.21-9.26c20.67,0,34,11.7,34,29.81,0,22.07-17.18,37-36.32,51.69l-8.26,5.94H84.08ZM8.18,616.71H78.23l3.35-17.92H43.93V596.9l10.83-7.79c18.69-14.3,35.49-28.9,35.49-50,0-16.85-12.55-27.73-32-27.73a64,64,0,0,0-31.45,8.54L31,534.58A42.82,42.82,0,0,1,52.6,529c9.52,0,15.67,5.44,15.67,13.87,0,13.36-14.57,26.28-35.16,43.06L10.65,603.21Z"/><path class="cls-2" d="M132.4,620.57c-20.08,0-31.59-14.24-31.59-39.07,0-17.66,4.62-35.38,12.67-48.62,9.38-15.44,22.45-23.6,37.77-23.6,20,0,31.43,13.59,31.43,37.28C182.68,582.44,165.06,620.57,132.4,620.57Zm18.85-109.21c-18.4,0-29.73,12.29-36,22.6-7.86,12.92-12.36,30.25-12.36,47.54,0,32.19,18.49,37,29.51,37,31.31,0,48.21-37.06,48.21-71.93C180.61,515.93,162.22,511.36,151.25,511.36ZM135.33,602c-7.7,0-11.6-6.63-11.6-19.72,0-16.3,8.48-54.51,24.92-54.51,7.27,0,11,6.36,11,18.91C159.61,562,152.14,602,135.33,602Zm13.32-72.15c-8.52,0-14.23,12.68-16.87,20.24-4.11,11.74-6,24.91-6,32.19,0,11.87,3.12,17.65,9.53,17.65,14.42,0,22.2-37.79,22.2-53.25C157.53,535.39,154.63,529.89,148.65,529.89Z"/><path class="cls-2" d="M255.81,618.78H181.54l3.06-16.73,23.07-17.79c20.11-16.41,34.37-29,34.37-41.44,0-7.28-5.21-11.8-13.59-11.8a40.75,40.75,0,0,0-21.72,6l-1.17.73L200.26,519l.67-.41a66,66,0,0,1,33.21-9.26c20.67,0,34,11.7,34,29.81,0,22.07-17.18,37-36.32,51.69l-8.26,5.94h36.34ZM184,616.71h70.05l3.35-17.92H219.78V596.9l10.83-7.79c18.69-14.3,35.48-28.9,35.48-50,0-16.85-12.54-27.73-31.95-27.73a64,64,0,0,0-31.45,8.54l4.13,14.68A42.77,42.77,0,0,1,228.45,529c9.52,0,15.67,5.44,15.67,13.87,0,13.36-14.58,26.28-35.16,43.06L186.5,603.21Z"/><path class="cls-2" d="M308.25,620.57c-20.08,0-31.59-14.24-31.59-39.07,0-17.66,4.61-35.38,12.66-48.62,9.39-15.44,22.45-23.6,37.78-23.6,20,0,31.43,13.59,31.43,37.28C358.53,582.44,340.91,620.57,308.25,620.57ZM327.1,511.36c-18.4,0-29.73,12.29-36,22.6-7.86,12.92-12.37,30.25-12.37,47.54,0,32.19,18.5,37,29.52,37,31.31,0,48.21-37.06,48.21-71.93C356.46,515.93,338.06,511.36,327.1,511.36ZM311.18,602c-7.7,0-11.61-6.63-11.61-19.72,0-16.3,8.48-54.51,24.93-54.51,7.27,0,10.95,6.36,10.95,18.91C335.45,562,328,602,311.18,602Zm13.32-72.15c-8.52,0-14.23,12.68-16.87,20.24-4.11,11.74-6,24.91-6,32.19,0,11.87,3.12,17.65,9.53,17.65,14.42,0,22.2-37.79,22.2-53.25C333.38,535.39,330.47,529.89,324.5,529.89Z"/><path class="cls-2" d="M440.33,618.78H423.68L433,589.69H421l-9.1,29.09H395.24l9.26-29.09H391.37l2.79-16.7h15.72l5.35-16.61H401.61l2.78-16.71h16.05l9.1-28.6h16.32l-9.1,28.6h12.12l9.1-28.6h16.49l-9.11,28.6h13l-2.78,16.71H460.16L455,573h13.3l-2.79,16.7h-16Zm-13.81-2.07H438.8l9.1-29.09h15.81l2.1-12.55H452.13l6.5-20.77h15.16l2.09-12.55H462.52l9.11-28.6H459.5l-9.1,28.6H433.92l9.1-28.6h-12l-9.1,28.6H406.15l-2.09,12.55h14l-6.69,20.77H395.91l-2.09,12.55h13.52l-9.26,29.09h12.28l9.1-29.09h16.33Zm13.31-41.64H423.69l6.5-20.77h16.33ZM426.51,573h11.81l5.35-16.61H431.72Z"/></g></g></svg>